<svg xmlns="http://www.w3.org/2000/svg" >
 <symbol id="icon-close" viewBox="0 0 24 24" >
    <path  d="M14.7664 1.23357C15.0779 1.545 15.0779 2.04993 14.7664 2.36136L2.36136 14.7664C2.04993 15.0779 1.545 15.0779 1.23357 14.7664C0.922142 14.455 0.922142 13.9501 1.23357 13.6386L13.6386 1.23357C13.9501 0.922142 14.455 0.922142 14.7664 1.23357Z" />
    <path  d="M1.23357 1.23357C1.545 0.922142 2.04993 0.922142 2.36136 1.23357L14.7664 13.6386C15.0779 13.9501 15.0779 14.455 14.7664 14.7664C14.455 15.0779 13.9501 15.0779 13.6386 14.7664L1.23357 2.36136C0.922142 2.04993 0.922142 1.545 1.23357 1.23357Z" />
 </symbol>
<symbol id="icon-fire" viewBox="0 0 24 24" > 
   <path d="M0.333008 9.66667C0.333008 8.20833 0.68023 6.90972 1.37467 5.77083C2.06912 4.63194 2.83301 3.67361 3.66634 2.89583C4.49967 2.11806 5.26356 1.52417 5.95801 1.11417L6.99968 0.5V3.25C6.99968 3.76389 7.17329 4.17 7.52051 4.46833C7.86773 4.76667 8.25662 4.91611 8.68717 4.91667C8.92329 4.91667 9.14912 4.86806 9.36468 4.77083C9.58023 4.67361 9.77801 4.51389 9.95801 4.29167L10.333 3.83333C11.333 4.41667 12.1386 5.22555 12.7497 6.26C13.3608 7.29444 13.6663 8.43 13.6663 9.66667C13.6663 10.8889 13.3677 12.0036 12.7705 13.0108C12.1733 14.0181 11.3886 14.8128 10.4163 15.395C10.6525 15.0617 10.8366 14.6969 10.9688 14.3008C11.1011 13.9047 11.1669 13.485 11.1663 13.0417C11.1663 12.4861 11.0622 11.9617 10.8538 11.4683C10.6455 10.975 10.3469 10.5342 9.95801 10.1458L6.99968 7.25L4.06218 10.1458C3.6594 10.5486 3.35384 10.9931 3.14551 11.4792C2.93717 11.9653 2.83301 12.4861 2.83301 13.0417C2.83301 13.4861 2.89912 13.9064 3.03134 14.3025C3.16356 14.6986 3.34745 15.0631 3.58301 15.3958C2.61079 14.8125 1.82606 14.0172 1.22884 13.01C0.631619 12.0028 0.333008 10.8883 0.333008 9.66667ZM6.99968 9.58333L8.77051 11.3125C9.00662 11.5486 9.18717 11.8125 9.31217 12.1042C9.43717 12.3958 9.49968 12.7083 9.49968 13.0417C9.49968 13.7222 9.25662 14.3019 8.77051 14.7808C8.2844 15.2597 7.69412 15.4994 6.99968 15.5C6.30523 15.5 5.71495 15.2603 5.22884 14.7808C4.74273 14.3014 4.49967 13.7217 4.49967 13.0417C4.49967 12.7222 4.56218 12.4131 4.68718 12.1142C4.81218 11.8153 4.99273 11.5481 5.22884 11.3125L6.99968 9.58333Z" fill="#FF8743"/>


</symbol>

 <symbol id="icon-arrow-down" viewBox="0 0 24 24" >
<g opacity="0.3">
<path fill-rule="evenodd" clip-rule="evenodd" d="M7.5341 12.2071C7.92463 12.5976 8.55779 12.5976 8.94832 12.2071L15.9483 5.20711C16.3388 4.81658 16.3388 4.18342 15.9483 3.79289C15.5578 3.40237 14.9246 3.40237 14.5341 3.79289L8.24121 10.0858L1.94832 3.79289C1.55779 3.40237 0.924628 3.40237 0.534104 3.79289C0.14358 4.18342 0.14358 4.81658 0.534104 5.20711L7.5341 12.2071Z" fill="#333333"/>
</g>

 </symbol>
 <symbol id="icon-arrow-up" viewBox="0 0 24 24" > 
 <g opacity="0.3">
<path fill-rule="evenodd" clip-rule="evenodd" d="M7.5341 3.79289C7.92463 3.40237 8.55779 3.40237 8.94832 3.79289L15.9483 10.7929C16.3388 11.1834 16.3388 11.8166 15.9483 12.2071C15.5578 12.5976 14.9246 12.5976 14.5341 12.2071L8.24121 5.91421L1.94832 12.2071C1.55779 12.5976 0.924628 12.5976 0.534104 12.2071C0.14358 11.8166 0.14358 11.1834 0.534104 10.7929L7.5341 3.79289Z" fill="#333333"/>
</g>
 </symbol>

 <symbol id="icon-clear" viewBox="0 0 24 24" > 
<path fill-rule="evenodd" clip-rule="evenodd" d="M22 12C22 17.5228 17.5228 22 12 22C6.47715 22 2 17.5228 2 12C2 6.47715 6.47715 2 12 2C17.5228 2 22 6.47715 22 12ZM15.7071 9.70711C16.0976 9.31658 16.0976 8.68342 15.7071 8.29289C15.3166 7.90237 14.6834 7.90237 14.2929 8.29289L12 10.5858L9.70711 8.29289C9.31658 7.90237 8.68342 7.90237 8.29289 8.29289C7.90237 8.68342 7.90237 9.31658 8.29289 9.70711L10.5858 12L8.29289 14.2929C7.90237 14.6834 7.90237 15.3166 8.29289 15.7071C8.68342 16.0976 9.31658 16.0976 9.70711 15.7071L12 13.4142L14.2929 15.7071C14.6834 16.0976 15.3166 16.0976 15.7071 15.7071C16.0976 15.3166 16.0976 14.6834 15.7071 14.2929L13.4142 12L15.7071 9.70711Z" fill="#333333"/>

  </symbol>
 <symbol id="icon-arrow-left" viewBox="0 0 24 24" > 
 <path opacity="0.3" fill-rule="evenodd" clip-rule="evenodd" d="M0.340134 12.8212C-0.113378 12.3676 -0.113378 11.6324 0.340134 11.1788L11.1788 0.340136C11.6324 -0.113376 12.3676 -0.113376 12.8212 0.340136C13.2747 0.793646 13.2747 1.52894 12.8212 1.98245L3.96489 10.8387L22.8387 10.8387C23.4801 10.8387 24 11.3586 24 12C24 12.6414 23.4801 13.1613 22.8387 13.1613L3.96489 13.1613L12.8212 22.0176C13.2747 22.4711 13.2747 23.2064 12.8212 23.6599C12.3676 24.1134 11.6324 24.1134 11.1788 23.6599L0.340134 12.8212Z" fill="#333333"/>
   </symbol>





</svg>


