<svg xmlns="http://www.w3.org/2000/svg" >
  <symbol id="icon-clear" viewBox="0 0 24 24" > 
    <path fill-rule="evenodd" clip-rule="evenodd" d="M22 12C22 17.5228 17.5228 22 12 22C6.47715 22 2 17.5228 2 12C2 6.47715 6.47715 2 12 2C17.5228 2 22 6.47715 22 12ZM15.7071 9.70711C16.0976 9.31658 16.0976 8.68342 15.7071 8.29289C15.3166 7.90237 14.6834 7.90237 14.2929 8.29289L12 10.5858L9.70711 8.29289C9.31658 7.90237 8.68342 7.90237 8.29289 8.29289C7.90237 8.68342 7.90237 9.31658 8.29289 9.70711L10.5858 12L8.29289 14.2929C7.90237 14.6834 7.90237 15.3166 8.29289 15.7071C8.68342 16.0976 9.31658 16.0976 9.70711 15.7071L12 13.4142L14.2929 15.7071C14.6834 16.0976 15.3166 16.0976 15.7071 15.7071C16.0976 15.3166 16.0976 14.6834 15.7071 14.2929L13.4142 12L15.7071 9.70711Z" fill="#333333"/>
  </symbol>

 <symbol id="icon-arrow-left" viewBox="0 0 24 24" > 
    <path opacity="0.3" fill-rule="evenodd" clip-rule="evenodd" d="M0.340134 12.8212C-0.113378 12.3676 -0.113378 11.6324 0.340134 11.1788L11.1788 0.340136C11.6324 -0.113376 12.3676 -0.113376 12.8212 0.340136C13.2747 0.793646 13.2747 1.52894 12.8212 1.98245L3.96489 10.8387L22.8387 10.8387C23.4801 10.8387 24 11.3586 24 12C24 12.6414 23.4801 13.1613 22.8387 13.1613L3.96489 13.1613L12.8212 22.0176C13.2747 22.4711 13.2747 23.2064 12.8212 23.6599C12.3676 24.1134 11.6324 24.1134 11.1788 23.6599L0.340134 12.8212Z" fill="#333333"/>
 </symbol>
</svg>


